<svg width="600" height="600" viewBox="0 0 600 600" fill="none" xmlns="http://www.w3.org/2000/svg">
<path d="M540 0H60C26.8629 0 0 26.8629 0 60V540C0 573.137 26.8629 600 60 600H540C573.137 600 600 573.137 600 540V60C600 26.8629 573.137 0 540 0Z" fill="white"/>
<path d="M300 186.111C277.475 186.111 255.456 192.791 236.727 205.305C217.998 217.819 203.401 235.607 194.781 256.417C186.161 277.228 183.906 300.128 188.3 322.219C192.694 344.311 203.541 364.606 219.469 380.533C235.396 396.458 255.689 407.306 277.781 411.7C299.875 416.094 322.772 413.839 343.583 405.219C364.394 396.6 382.181 382.003 394.694 363.275C407.211 344.544 413.889 322.525 413.889 300C413.925 285.033 411.006 270.208 405.294 256.375C399.583 242.539 391.197 229.97 380.614 219.387C370.031 208.804 357.461 200.417 343.628 194.706C329.792 188.996 314.967 186.075 300 186.111ZM300 374.167C285.331 374.167 270.992 369.817 258.794 361.667C246.6 353.519 237.093 341.936 231.479 328.383C225.866 314.831 224.397 299.919 227.259 285.531C230.121 271.144 237.184 257.928 247.556 247.556C257.928 237.184 271.144 230.121 285.531 227.259C299.919 224.397 314.831 225.866 328.383 231.479C341.936 237.093 353.519 246.6 361.667 258.794C369.817 270.992 374.167 285.331 374.167 300C374.167 319.669 366.353 338.536 352.444 352.444C338.536 366.353 319.669 374.167 300 374.167ZM445.278 181.389C445.278 186.883 443.65 192.254 440.597 196.822C437.544 201.39 433.206 204.95 428.131 207.052C423.056 209.155 417.469 209.705 412.081 208.633C406.692 207.561 401.744 204.916 397.858 201.031C393.975 197.146 391.328 192.197 390.256 186.809C389.183 181.42 389.733 175.835 391.836 170.759C393.939 165.684 397.5 161.345 402.067 158.293C406.636 155.241 412.006 153.611 417.5 153.611C424.867 153.611 431.933 156.538 437.142 161.747C442.353 166.957 445.278 174.022 445.278 181.389ZM520.556 209.167C521.364 174.634 508.483 141.184 484.722 116.111C459.783 92.0472 426.317 78.8603 391.667 79.4447C355.556 77.778 244.444 77.778 208.334 79.4447C173.812 78.6972 140.383 91.57 115.278 115.278C91.518 140.35 78.6369 173.801 79.4447 208.334C77.778 244.444 77.778 355.556 79.4447 391.667C78.6369 426.2 91.518 459.65 115.278 484.722C140.383 508.431 173.812 521.303 208.334 520.556C245 522.778 355 522.778 391.667 520.556C426.2 521.364 459.65 508.483 484.722 484.722C508.483 459.65 521.364 426.2 520.556 391.667C522.222 355.556 522.222 244.444 520.556 208.334V209.167ZM473.333 431.389C469.561 440.944 463.869 449.619 456.606 456.883C449.342 464.147 440.667 469.839 431.111 473.611C387.989 482.331 343.906 485.319 300 482.5C256.189 485.322 212.195 482.333 169.167 473.611C159.613 469.839 150.936 464.147 143.673 456.883C136.41 449.619 130.716 440.944 126.945 431.389C115.278 401.944 117.778 332.5 117.778 300.278C117.778 268.056 115.278 198.334 126.945 169.167C130.61 159.519 136.263 150.749 143.537 143.427C150.811 136.106 159.543 130.395 169.167 126.667C212.195 117.944 256.189 114.955 300 117.778C343.906 114.96 387.989 117.949 431.111 126.667C440.667 130.439 449.342 136.132 456.606 143.395C463.869 150.658 469.561 159.336 473.333 168.889C485 198.334 482.222 267.778 482.222 300C482.222 332.222 485 401.944 473.333 431.111V431.389Z" fill="black"/>
</svg>
